<svg width="275" height="45" viewBox="0 0 275 45" fill="none" xmlns="http://www.w3.org/2000/svg">
<path d="M1.19209e-07 37.5V2.5H24V-2.98023e-06H32.95V10H8.95V12H33.45V37.5H1.19209e-07ZM8.95 30H24.5V19.5H8.95V30ZM72.9031 10V45H39.4531V37.5H63.9531V35.5H39.4531V10H48.4031V28H63.9531V10H72.9031ZM78.9063 45V10H112.356V37.5H87.8563V45H78.9063ZM103.406 17.5H87.8563V30H103.406V17.5ZM146.609 10V17.5H127.309V37.5H118.359V10H146.609ZM185.061 30V37.5H151.611V10H185.061V27.75H160.561V30H185.061ZM160.561 20.25H176.111V17.5H160.561V20.25ZM191.064 45V10H224.514V37.5H200.014V45H191.064ZM215.564 17.5H200.014V30H215.564V17.5ZM230.518 37.5V10H239.468V19H260.968V37.5H230.518ZM239.468 30H252.018V26.5H239.468V30ZM265.518 37.5V10H274.468V37.5H265.518Z" fill="#FFD400" fill-opacity="0.5"/>
</svg>
