<svg width="271" height="35" viewBox="0 0 271 35" fill="none" xmlns="http://www.w3.org/2000/svg">
<path d="M33.45 -5.96046e-07V27.5H24.5V17.5H8.95V27.5H1.19209e-07V-5.96046e-07H8.95V10H24.5V-5.96046e-07H33.45ZM39.4531 7.5V-5.96046e-07H72.9031V27.5H39.4531V9.75H63.9531V7.5H39.4531ZM63.9531 17.25H48.4031V20H63.9531V17.25ZM78.9063 35V-5.96046e-07H112.356V27.5H87.8563V35H78.9063ZM103.406 7.5H87.8563V20H103.406V7.5ZM151.809 20V27.5H118.359V-5.96046e-07H151.809V17.75H127.309V20H151.809ZM127.309 10.25H142.859V7.5H127.309V10.25ZM173.763 16L178.363 7.5H166.763V10.5H157.813V-5.96046e-07H191.113L185.913 9H191.263V27.5H157.813V17H166.763V20H182.313V16H173.763ZM223.316 27.5L218.116 17.5H206.216V27.5H197.266V-5.96046e-07H206.216V10H218.116L222.916 -5.96046e-07H231.966L225.416 13.25L233.066 27.5H223.316ZM270.999 -5.96046e-07V27.5H262.049L262.099 15.55L246.499 19.15V27.5H237.549V-5.96046e-07H246.499V10.9L262.049 7.25V-5.96046e-07H270.999Z" fill="#FFD400" fill-opacity="0.5"/>
</svg>
